<?xml version="1.0" encoding="UTF-8"?>
<svg width="11px" height="16px" viewBox="0 0 11 16" version="1.1" xmlns="http://www.w3.org/2000/svg" xmlns:xlink="http://www.w3.org/1999/xlink">
    <!-- Generator: sketchtool 52.5 (67469) - http://www.bohemiancoding.com/sketch -->
    <title>9D989C57-0E5B-42F3-BB2C-0906D79CFD6A</title>
    <desc>Created with sketchtool.</desc>
    <g id="6.1-STO-issuer-side" stroke="none" stroke-width="1" fill="none" fill-rule="evenodd">
        <g id="STO-config-peg-to-usd-tiers-3" transform="translate(-790.000000, -820.000000)" fill="#8C9BA5">
            <g id="token-details" transform="translate(120.000000, 204.000000)">
                <g id="blocks" transform="translate(24.000000, 471.000000)">
                    <g id="table" transform="translate(0.000000, 106.000000)">
                        <g id="table-row" transform="translate(0.000000, 31.000000)">
                            <g id="UI-Icon/Icon/delete/$ui-05" transform="translate(646.000000, 8.000000)">
                                <g id="delete">
                                    <rect id="Rectangle-path" x="2.66666667" y="0" width="5.33333333" height="1.33333333"></rect>
                                    <path d="M0,2 L0,4.66666667 L0.666666667,4.66666667 L0.666666667,16 L10,16 L10,4.66666667 L10.6666667,4.66666667 L10.6666667,2 L0,2 L0,2 L0,2 Z M8.66666667,14 L2,14 L2,5.33333333 L8.66666667,5.33333333 L8.66666667,14 L8.66666667,14 Z" id="Shape"></path>
                                    <rect id="Rectangle-path_1_" x="3.33333333" y="6.66666667" width="1.33333333" height="6"></rect>
                                    <rect id="Rectangle-path_2_" x="6" y="6.66666667" width="1.33333333" height="6"></rect>
                                </g>
                            </g>
                        </g>
                    </g>
                </g>
            </g>
        </g>
    </g>
</svg>