<?xml version="1.0" standalone="no"?>
<!DOCTYPE svg PUBLIC "-//W3C//DTD SVG 20010904//EN"
 "http://www.w3.org/TR/2001/REC-SVG-20010904/DTD/svg10.dtd">
<svg version="1.0" xmlns="http://www.w3.org/2000/svg"
 width="1040.000000pt" height="1040.000000pt" viewBox="0 0 1040.000000 1040.000000"
 preserveAspectRatio="xMidYMid meet">
<metadata>
Created by potrace 1.11, written by Peter Selinger 2001-2013
</metadata>
<g transform="translate(0.000000,1040.000000) scale(0.100000,-0.100000)"
fill="#000000" stroke="none">
<path d="M6278 8404 c-6 -5 -23 -9 -84 -18 -22 -4 -46 -8 -54 -11 -8 -2 -26
-6 -40 -9 -14 -2 -74 -14 -135 -26 -60 -12 -119 -24 -130 -25 -11 -2 -31 -6
-45 -9 -14 -3 -64 -13 -112 -22 -85 -16 -90 -19 -180 -92 -51 -42 -99 -81
-106 -86 -7 -6 -21 -18 -30 -27 -9 -8 -53 -44 -97 -80 -44 -35 -82 -66 -85
-69 -9 -9 -75 -64 -120 -100 -24 -19 -48 -40 -54 -45 -6 -6 -59 -50 -118 -97
-58 -48 -113 -95 -122 -104 -9 -8 -16 -13 -16 -10 0 3 -16 -9 -35 -27 -19 -17
-40 -37 -47 -42 -19 -15 -78 -63 -123 -101 -22 -18 -87 -72 -145 -120 -58 -47
-125 -103 -150 -124 -58 -48 -191 -158 -210 -173 -8 -7 -80 -66 -160 -132 -80
-66 -149 -123 -155 -128 -5 -4 -22 -17 -36 -30 -14 -12 -45 -38 -69 -57 -24
-19 -48 -40 -54 -45 -6 -6 -33 -28 -61 -50 -68 -54 -105 -86 -132 -112 -13
-13 -28 -23 -33 -23 -5 0 -17 -10 -27 -22 -10 -13 -22 -23 -28 -23 -5 0 -129
-40 -274 -89 -146 -48 -269 -89 -275 -91 -6 -1 -18 -5 -26 -8 -8 -3 -123 -42
-255 -87 l-240 -80 -70 -74 c-38 -41 -119 -127 -180 -191 -60 -64 -130 -139
-155 -165 l-45 -47 -255 -2 c-548 -6 -539 -5 -554 -21 -13 -14 -49 -78 -120
-215 -17 -33 -35 -63 -41 -67 -5 -4 -6 -8 -2 -8 5 0 0 -12 -11 -27 -10 -16
-25 -41 -34 -58 -14 -30 -85 -163 -151 -284 -33 -60 -50 -75 -97 -86 -8 -2
-62 -18 -120 -35 -58 -17 -113 -33 -122 -35 -215 -56 -286 -85 -222 -90 10 -1
42 -5 69 -9 28 -5 64 -10 80 -12 17 -2 46 -6 65 -9 19 -3 50 -7 68 -10 18 -2
45 -6 60 -9 15 -3 49 -8 76 -11 27 -3 52 -7 56 -10 4 -2 14 1 22 8 17 14 108
133 108 141 0 3 8 14 18 24 24 26 30 34 177 232 71 96 135 182 142 190 7 8 21
25 31 38 l17 23 95 -20 c85 -18 167 -32 187 -33 5 0 18 -4 31 -9 13 -5 37 -11
55 -14 18 -3 57 -11 87 -17 30 -6 64 -12 75 -14 11 -2 29 -5 40 -7 11 -2 38
-8 60 -12 22 -4 49 -10 60 -12 11 -2 25 -5 32 -7 7 -1 15 -4 18 -7 2 -3 5
-161 5 -350 l1 -346 -61 -164 c-33 -90 -64 -173 -69 -184 -5 -11 -16 -42 -26
-70 -9 -27 -21 -59 -25 -70 -12 -26 -166 -443 -190 -515 -11 -30 -22 -68 -24
-85 -3 -16 -10 -45 -15 -63 -5 -18 -10 -35 -10 -37 -1 -3 -1 -6 -2 -7 0 -2 -2
-12 -4 -23 -2 -11 -6 -29 -8 -40 -3 -11 -17 -72 -31 -135 -14 -63 -30 -130
-35 -147 -5 -18 -8 -33 -6 -33 3 0 0 -11 -5 -26 -6 -14 -12 -38 -15 -54 -3
-17 -12 -60 -21 -97 -9 -38 -17 -72 -18 -78 -2 -5 -9 -38 -16 -73 -7 -34 -26
-83 -41 -107 -16 -25 -29 -49 -29 -54 0 -5 -7 -14 -16 -21 -8 -8 -22 -27 -30
-44 -8 -17 -27 -51 -44 -76 -49 -75 -83 -138 -79 -147 5 -9 3 -10 99 12 108
24 112 25 142 30 16 3 58 12 95 21 83 20 75 18 148 33 33 6 70 16 83 22 26 10
26 8 -8 173 -11 55 -22 113 -25 130 -3 17 -8 45 -11 62 -5 24 5 53 44 132 28
55 48 102 46 105 -2 2 2 10 11 17 8 7 15 16 15 20 0 8 34 79 266 558 46 95 84
176 84 180 0 4 10 19 23 34 14 17 63 42 142 73 66 25 139 56 163 67 24 11 48
21 55 22 7 2 21 7 32 11 11 4 58 23 105 42 47 19 99 41 117 49 17 8 37 14 45
14 8 0 18 4 23 8 6 5 75 34 155 66 l145 58 63 106 c35 59 69 116 75 127 7 11
27 43 45 71 17 28 32 56 32 62 0 6 4 12 9 14 8 3 20 23 93 151 18 31 36 57 40
57 5 0 8 6 8 14 0 8 46 47 101 87 56 41 107 80 115 87 7 6 15 12 19 12 3 0 11
5 18 10 17 15 85 65 207 154 58 42 110 79 115 84 6 4 23 17 38 29 28 22 53 23
130 7 15 -3 44 -8 65 -10 41 -4 72 -9 132 -19 22 -4 50 -8 63 -10 89 -12 124
-17 137 -20 8 -2 38 -7 65 -10 28 -4 57 -8 66 -11 9 -3 34 -7 55 -9 22 -2 50
-7 64 -10 14 -3 39 -7 55 -10 17 -3 44 -7 60 -10 17 -3 46 -8 65 -11 19 -2 58
-9 85 -14 28 -5 68 -12 90 -15 22 -4 51 -8 65 -10 14 -2 45 -8 70 -13 25 -5
52 -5 60 0 8 4 56 26 105 49 50 23 115 53 145 67 30 14 57 27 60 27 7 2 81 36
203 94 60 28 110 51 111 51 2 0 52 23 112 52 60 29 111 53 114 53 6 2 73 32
288 131 41 19 75 34 77 34 2 0 -3 -24 -11 -52 -8 -29 -16 -65 -19 -80 -3 -16
-12 -58 -21 -95 -9 -38 -18 -79 -21 -93 -8 -41 -11 -55 -13 -55 -2 0 -11 -54
-12 -72 -1 -7 -4 -13 -8 -13 -3 0 -6 -8 -6 -17 -1 -10 -13 -72 -28 -138 -15
-66 -29 -129 -31 -140 -1 -11 -5 -27 -8 -35 -3 -8 -8 -27 -11 -42 -5 -20 -13
-28 -29 -29 -36 -1 -126 -6 -232 -13 -158 -11 -258 -17 -290 -19 l-30 -2 -28
-135 c-15 -74 -30 -146 -32 -160 -3 -14 -12 -56 -20 -95 -8 -38 -17 -81 -19
-95 -3 -14 -5 -25 -6 -25 -1 0 -3 -13 -6 -30 -2 -16 -12 -67 -23 -113 -10 -45
-15 -85 -11 -87 6 -4 252 155 287 185 7 5 14 10 17 10 2 0 41 25 85 56 44 30
109 68 143 83 35 16 86 39 113 51 28 13 55 24 60 25 6 2 31 12 55 23 25 11 76
34 114 51 38 17 75 31 82 31 8 0 14 5 14 10 0 6 6 10 13 10 29 0 300 127 310
146 6 10 37 59 69 107 32 48 58 90 58 92 0 2 31 51 68 107 38 57 88 134 113
172 81 128 268 411 277 422 29 33 42 80 47 166 3 51 8 138 11 193 3 55 6 115
6 133 l0 33 47 -43 c26 -24 47 -44 46 -45 -1 -1 55 -60 123 -130 128 -132 131
-135 460 -340 52 -32 106 -66 120 -75 15 -10 34 -21 42 -25 8 -3 17 -9 20 -13
3 -3 39 -26 80 -50 41 -24 77 -47 80 -50 4 -5 53 -35 165 -103 11 -7 45 -29
77 -50 l58 -38 67 32 c85 39 187 87 374 177 l146 70 -3 53 c-2 30 -6 115 -9
189 -2 74 -7 179 -10 233 -3 54 -8 144 -10 200 -3 56 -7 138 -9 182 -3 44 -7
134 -10 200 -11 228 -14 250 -46 350 -17 55 -36 116 -42 135 -5 19 -12 42 -15
50 -3 8 -8 21 -10 28 -6 23 -10 37 -18 67 -4 17 -10 35 -14 40 -15 26 -9 43
17 51 15 4 32 8 37 10 6 2 20 5 33 8 12 3 27 8 32 11 5 3 19 8 30 10 19 4 113
31 244 71 41 13 164 46 216 58 92 22 93 23 185 138 49 62 92 115 95 118 3 3
62 75 130 160 68 85 136 169 152 186 l29 31 -6 104 c-10 177 -14 242 -18 245
-2 2 -25 -59 -51 -136 -48 -139 -49 -140 -109 -192 -33 -29 -68 -60 -76 -68
-9 -9 -47 -43 -86 -75 -38 -33 -72 -62 -75 -65 -3 -3 -39 -34 -80 -70 -41 -36
-77 -67 -80 -70 -3 -3 -32 -28 -65 -57 -57 -48 -64 -51 -145 -62 -47 -7 -103
-14 -125 -17 -22 -3 -56 -8 -75 -10 -19 -2 -48 -6 -65 -8 -16 -2 -57 -7 -90
-11 -33 -4 -68 -9 -78 -11 -10 -2 -46 -6 -80 -9 -34 -4 -65 -7 -68 -8 -4 -1
-26 16 -50 38 -25 22 -65 59 -91 82 l-46 42 72 103 c63 89 315 446 398 563 16
22 43 61 61 87 30 45 66 66 142 84 26 7 66 18 275 79 124 36 234 67 245 70 11
2 21 4 23 6 4 3 22 6 42 8 11 0 20 5 20 10 0 8 -47 6 -92 -3 -10 -2 -18 0 -18
6 0 5 -5 6 -12 2 -6 -4 -39 -9 -72 -10 -34 -1 -108 -5 -166 -8 -58 -3 -163 -8
-235 -11 -159 -8 -169 -9 -192 -30 -27 -25 -111 -85 -118 -85 -3 0 -11 -5 -18
-10 -23 -20 -207 -150 -212 -150 -3 0 -11 -5 -18 -11 -11 -9 -154 -111 -305
-217 -30 -20 -59 -42 -66 -48 -7 -6 -22 -15 -34 -18 -12 -4 -22 -11 -22 -15 0
-5 -27 -25 -60 -46 -33 -21 -60 -42 -60 -47 0 -5 -4 -7 -9 -3 -5 3 -33 7 -63
10 -29 2 -87 7 -128 10 -41 3 -91 8 -110 10 -19 2 -73 6 -120 10 -47 3 -110 8
-140 11 -30 3 -84 8 -120 10 -196 12 -143 -7 -537 195 -409 211 -543 279 -709
363 -184 93 -198 99 -206 90z"/>
</g>
</svg>
