<?xml version="1.0" encoding="UTF-8"?>
<svg width="309px" height="197px" viewBox="0 0 309 197" version="1.1" xmlns="http://www.w3.org/2000/svg" xmlns:xlink="http://www.w3.org/1999/xlink">
    <!-- Generator: sketchtool 52.1 (67048) - http://www.bohemiancoding.com/sketch -->
    <title>D8FC3851-03DB-4D8C-A51B-48B99828D84D</title>
    <desc>Created with sketchtool.</desc>
    <defs>
        <linearGradient x1="31.881263%" y1="100%" x2="100%" y2="0%" id="linearGradient-1">
            <stop stop-color="#4E87D4" offset="0%"></stop>
            <stop stop-color="#252E6A" offset="100%"></stop>
        </linearGradient>
        <linearGradient x1="11.8488155%" y1="78.7962988%" x2="79.5668579%" y2="12.5606763%" id="linearGradient-2">
            <stop stop-color="#4E87D4" offset="0%"></stop>
            <stop stop-color="#252E6A" offset="100%"></stop>
        </linearGradient>
        <linearGradient x1="20.8640731%" y1="110.531264%" x2="113.87704%" y2="-15.9085599%" id="linearGradient-3">
            <stop stop-color="#4E87D4" offset="0%"></stop>
            <stop stop-color="#252E6A" offset="100%"></stop>
        </linearGradient>
        <filter x="-56.8%" y="-92.2%" width="214.2%" height="284.4%" filterUnits="objectBoundingBox" id="filter-4">
            <feOffset dx="0" dy="32" in="SourceAlpha" result="shadowOffsetOuter1"></feOffset>
            <feGaussianBlur stdDeviation="16.5" in="shadowOffsetOuter1" result="shadowBlurOuter1"></feGaussianBlur>
            <feColorMatrix values="0 0 0 0 0   0 0 0 0 0   0 0 0 0 0  0 0 0 0.1 0" type="matrix" in="shadowBlurOuter1" result="shadowMatrixOuter1"></feColorMatrix>
            <feMerge>
                <feMergeNode in="shadowMatrixOuter1"></feMergeNode>
                <feMergeNode in="SourceGraphic"></feMergeNode>
            </feMerge>
        </filter>
    </defs>
    <g id="Splash-dummy-page-misc-pages" stroke="none" stroke-width="1" fill="none" fill-rule="evenodd">
        <g id="update-sc-v2" transform="translate(-375.000000, -158.000000)">
            <g id="form" transform="translate(353.000000, 104.000000)">
                <g id="img" transform="translate(22.000000, 40.000000)">
                    <g id="New-Version-" transform="translate(106.000000, 106.000000)">
                        <path d="M76.216,25.6 L73.164,25.6 L65.044,13.224 C64.7826654,12.831998 64.5120014,12.3466696 64.232,11.768 C64.2880003,12.2160022 64.316,12.7013307 64.316,13.224 L64.316,25.6 L60.984,25.6 L60.984,6 L64.232,6 L72.156,18.18 C72.3426676,18.4600014 72.6133316,18.9546631 72.968,19.664 C72.9119997,19.1599975 72.884,18.6653358 72.884,18.18 L72.884,6 L76.216,6 L76.216,25.6 Z M80.976,25.6 L80.976,6 L93.744,6 L93.744,9.164 L84.336,9.164 L84.336,13.896 L90.132,13.896 L90.132,17.06 L84.336,17.06 L84.336,22.436 L94.36,22.436 L94.36,25.6 L80.976,25.6 Z M100.94,25.6 L96.74,6 L100.184,6 L102.508,17.536 C102.713334,18.6186721 102.825333,19.2439992 102.844,19.412 C102.9,19.0013313 103.030666,18.3760042 103.236,17.536 L106.12,6 L108.976,6 L111.916,17.508 C112.102668,18.1800034 112.233333,18.8053304 112.308,19.384 C112.382667,18.842664 112.494666,18.2266701 112.644,17.536 L114.968,6 L118.356,6 L114.128,25.6 L111.048,25.6 L107.884,13.476 C107.678666,12.7479964 107.548,12.1413358 107.492,11.656 C107.436,12.1040022 107.314668,12.7013296 107.128,13.448 L104.02,25.6 L100.94,25.6 Z M6.832,57.6 L0,38 L3.612,38 L8.008,51.244 C8.25066788,52.0840042 8.4186662,52.6813316 8.512,53.036 C8.58666704,52.643998 8.74533212,52.0466707 8.988,51.244 L13.356,38 L16.912,38 L10.108,57.6 L6.832,57.6 Z M19.628,57.6 L19.628,38 L32.396,38 L32.396,41.164 L22.988,41.164 L22.988,45.896 L28.784,45.896 L28.784,49.06 L22.988,49.06 L22.988,54.436 L33.012,54.436 L33.012,57.6 L19.628,57.6 Z M36.792,57.6 L36.792,38 L45.472,38 C47.730678,38 49.3686616,38.5599944 50.386,39.68 C51.4033384,40.8000056 51.912,42.2279913 51.912,43.964 C51.912,45.1773394 51.5666701,46.3159947 50.876,47.38 C50.1853299,48.4440053 49.1866732,49.171998 47.88,49.564 L51.8,57.6 L48.02,57.6 L44.24,49.928 L40.152,49.928 L40.152,57.6 L36.792,57.6 Z M40.152,46.736 L45.528,46.736 C46.536005,46.736 47.273331,46.4746693 47.74,45.952 C48.206669,45.4293307 48.44,44.7666707 48.44,43.964 C48.44,43.1799961 48.2160022,42.5220027 47.768,41.99 C47.3199978,41.4579973 46.5733386,41.192 45.528,41.192 L40.152,41.192 L40.152,46.736 Z M62.104,57.936 C60.311991,57.936 58.7673398,57.4833379 57.47,56.578 C56.1726602,55.6726621 55.253336,54.4360078 54.712,52.868 L57.82,51.72 C58.2306687,52.6346712 58.8186628,53.3673306 59.584,53.918 C60.3493372,54.4686694 61.2266617,54.744 62.216,54.744 C63.2426718,54.744 64.0593303,54.510669 64.666,54.044 C65.2726697,53.577331 65.576,52.9053377 65.576,52.028 C65.576,51.6733316 65.4920008,51.3420015 65.324,51.034 C65.1559992,50.7259985 64.9646677,50.4693344 64.75,50.264 C64.5353323,50.0586656 64.2133355,49.8533344 63.784,49.648 C63.3546645,49.4426656 62.9906682,49.2793339 62.692,49.158 C62.3933318,49.0366661 61.9546696,48.8826676 61.376,48.696 C60.6293296,48.4346654 60.0553353,48.2293341 59.654,48.08 C59.2526647,47.9306659 58.7393365,47.6833351 58.114,47.338 C57.4886635,46.9926649 57.0126683,46.6426684 56.686,46.288 C56.3593317,45.9333316 56.0700013,45.4620029 55.818,44.874 C55.5659987,44.2859971 55.44,43.6373369 55.44,42.928 C55.44,41.4346592 56.0186609,40.184005 57.176,39.176 C58.3333391,38.167995 59.9013234,37.664 61.88,37.664 C63.5226749,37.664 64.8853279,38.0513295 65.968,38.826 C67.0506721,39.6006705 67.7786648,40.6133271 68.152,41.864 L65.128,42.872 C64.5306637,41.5279933 63.3733419,40.856 61.656,40.856 C60.7786623,40.856 60.0926691,41.0379982 59.598,41.402 C59.1033309,41.7660018 58.856,42.2839966 58.856,42.956 C58.856,43.4040022 59.0473314,43.8053316 59.43,44.16 C59.8126686,44.5146684 60.2233311,44.7806658 60.662,44.958 C61.1006689,45.1353342 61.749329,45.3639986 62.608,45.644 C63.1680028,45.8493344 63.5926652,46.0033328 63.882,46.106 C64.1713348,46.2086672 64.5773307,46.3813321 65.1,46.624 C65.6226693,46.8666679 66.0333318,47.085999 66.332,47.282 C66.6306682,47.478001 66.9713314,47.7439983 67.354,48.08 C67.7366686,48.4160017 68.0306656,48.7659982 68.236,49.13 C68.4413344,49.4940018 68.6186659,49.9233309 68.768,50.418 C68.9173341,50.9126691 68.992,51.4493304 68.992,52.028 C68.992,53.8573425 68.3433398,55.2993281 67.046,56.354 C65.7486602,57.4086719 64.1013433,57.936 62.104,57.936 Z M73.052,57.6 L73.052,38 L76.412,38 L76.412,57.6 L73.052,57.6 Z M89.208,57.936 C87.9946606,57.936 86.8933383,57.740002 85.904,57.348 C84.9146617,56.955998 84.0980032,56.42867 83.454,55.766 C82.8099968,55.10333 82.2686689,54.3333377 81.83,53.456 C81.3913311,52.5786623 81.0786676,51.6686714 80.892,50.726 C80.7053324,49.7833286 80.612,48.808005 80.612,47.8 C80.612,46.791995 80.7053324,45.8166714 80.892,44.874 C81.0786676,43.9313286 81.3913311,43.0213377 81.83,42.144 C82.2686689,41.2666623 82.8099968,40.49667 83.454,39.834 C84.0980032,39.17133 84.9146617,38.644002 85.904,38.252 C86.8933383,37.859998 87.9946606,37.664 89.208,37.664 C90.7200076,37.664 92.0499943,37.9579971 93.198,38.546 C94.3460057,39.1340029 95.2419968,39.9273283 95.886,40.926 C96.5300032,41.9246717 97.0106651,43.0026609 97.328,44.16 C97.6453349,45.3173391 97.804,46.5306603 97.804,47.8 C97.804,49.0693397 97.6453349,50.2826609 97.328,51.44 C97.0106651,52.5973391 96.5300032,53.6753283 95.886,54.674 C95.2419968,55.6726717 94.3460057,56.4659971 93.198,57.054 C92.0499943,57.6420029 90.7200076,57.936 89.208,57.936 Z M89.208,54.716 C90.1040045,54.716 90.8973299,54.5013355 91.588,54.072 C92.2786701,53.6426645 92.8153314,53.0780035 93.198,52.378 C93.5806686,51.6779965 93.8653324,50.9406705 94.052,50.166 C94.2386676,49.3913295 94.332,48.6026707 94.332,47.8 C94.332,46.941329 94.2386676,46.1246705 94.052,45.35 C93.8653324,44.5753295 93.5806686,43.8426701 93.198,43.152 C92.8153314,42.4613299 92.2833367,41.9106687 91.602,41.5 C90.9206633,41.0893313 90.1226712,40.884 89.208,40.884 C88.0133274,40.884 87.0146707,41.2619962 86.212,42.018 C85.4093293,42.7740038 84.8540015,43.6466617 84.546,44.636 C84.2379985,45.6253383 84.084,46.6799944 84.084,47.8 C84.084,48.6400042 84.1773324,49.4519961 84.364,50.236 C84.5506676,51.0200039 84.8353314,51.7573299 85.218,52.448 C85.6006686,53.1386701 86.1326633,53.6893313 86.814,54.1 C87.4953367,54.5106687 88.2933288,54.716 89.208,54.716 Z M117.096,57.6 L114.044,57.6 L105.924,45.224 C105.662665,44.831998 105.392001,44.3466696 105.112,43.768 C105.168,44.2160022 105.196,44.7013307 105.196,45.224 L105.196,57.6 L101.864,57.6 L101.864,38 L105.112,38 L113.036,50.18 C113.222668,50.4600014 113.493332,50.9546631 113.848,51.664 C113.792,51.1599975 113.764,50.6653358 113.764,50.18 L113.764,38 L117.096,38 L117.096,57.6 Z" id="New-Version-Copy-4" fill="url(#linearGradient-1)"></path>
                        <g id="2.0" transform="translate(139.000000, 0.000000)">
                            <circle id="Oval-Copy-2" stroke="url(#linearGradient-2)" stroke-width="4" cx="32" cy="32" r="30"></circle>
                            <path d="M26.5384115,41 L14.9016927,41 L14.9016927,38.7734375 L20.421224,32.84375 C20.8509136,32.3749977 21.2141912,31.9492207 21.5110677,31.5664062 C21.8079442,31.1835918 22.0481762,30.833986 22.2317708,30.5175781 C22.4153655,30.2011703 22.5481767,29.9062514 22.6302083,29.6328125 C22.71224,29.3593736 22.7532552,29.0937513 22.7532552,28.8359375 C22.7532552,28.4531231 22.6985683,28.1132827 22.5891927,27.8164062 C22.4798172,27.5195298 22.3255218,27.2675792 22.1263021,27.0605469 C21.9270823,26.8535146 21.6888035,26.695313 21.4114583,26.5859375 C21.1341132,26.476562 20.8274756,26.421875 20.4915365,26.421875 C19.5930945,26.421875 18.9231793,26.6718725 18.4817708,27.171875 C18.0403624,27.6718775 17.8196615,28.3710893 17.8196615,29.2695312 L14.5501302,29.2695312 C14.5501302,28.511715 14.69466,27.7949253 14.983724,27.1191406 C15.2727879,26.443356 15.6809869,25.851565 16.2083333,25.34375 C16.7356797,24.835935 17.3723921,24.4355483 18.1184896,24.1425781 C18.8645871,23.8496079 19.6907507,23.703125 20.5970052,23.703125 C21.464197,23.703125 22.2317675,23.8242175 22.8997396,24.0664062 C23.5677117,24.308595 24.1262998,24.6484353 24.5755208,25.0859375 C25.0247418,25.5234397 25.3665353,26.0488251 25.6009115,26.6621094 C25.8352876,27.2753937 25.952474,27.9531213 25.952474,28.6953125 C25.952474,29.2578153 25.8645842,29.7949193 25.6888021,30.3066406 C25.51302,30.8183619 25.2630225,31.3242162 24.9388021,31.8242188 C24.6145817,32.3242213 24.2259137,32.8339818 23.7727865,33.3535156 C23.3196592,33.8730495 22.815758,34.4179659 22.2610677,34.9882812 L19.0501302,38.3867188 L26.5384115,38.3867188 L26.5384115,41 Z M29.7441406,39.1132812 C29.7441406,38.8085922 29.7949214,38.5253919 29.8964844,38.2636719 C29.9980474,38.0019518 30.1464834,37.7753916 30.3417969,37.5839844 C30.5371104,37.3925772 30.7753892,37.2402349 31.0566406,37.1269531 C31.337892,37.0136713 31.6542951,36.9570312 32.0058594,36.9570312 C32.3574236,36.9570312 32.6738267,37.0136713 32.9550781,37.1269531 C33.2363295,37.2402349 33.4726553,37.3925772 33.6640625,37.5839844 C33.8554697,37.7753916 34.0039057,38.0019518 34.109375,38.2636719 C34.2148443,38.5253919 34.2675781,38.8085922 34.2675781,39.1132812 C34.2675781,39.4101577 34.2148443,39.6874987 34.109375,39.9453125 C34.0039057,40.2031263 33.8554697,40.4277334 33.6640625,40.6191406 C33.4726553,40.8105478 33.2363295,40.960937 32.9550781,41.0703125 C32.6738267,41.179688 32.3574236,41.234375 32.0058594,41.234375 C31.6542951,41.234375 31.337892,41.179688 31.0566406,41.0703125 C30.7753892,40.960937 30.5371104,40.8105478 30.3417969,40.6191406 C30.1464834,40.4277334 29.9980474,40.2031263 29.8964844,39.9453125 C29.7949214,39.6874987 29.7441406,39.4101577 29.7441406,39.1132812 Z M48.6295573,34.5078125 C48.6295573,35.6093805 48.5026054,36.5800739 48.2486979,37.4199219 C47.9947904,38.2597698 47.6295597,38.9628878 47.1529948,39.5292969 C46.6764299,40.095706 46.0944045,40.5234361 45.406901,40.8125 C44.7193976,41.1015639 43.9459678,41.2460938 43.0865885,41.2460938 C42.2350218,41.2460938 41.4654982,41.1015639 40.7779948,40.8125 C40.0904914,40.5234361 39.5065128,40.095706 39.0260417,39.5292969 C38.5455705,38.9628878 38.1744805,38.2597698 37.9127604,37.4199219 C37.6510404,36.5800739 37.5201823,35.6093805 37.5201823,34.5078125 L37.5201823,30.4296875 C37.5201823,29.3281195 37.6490873,28.3574261 37.906901,27.5175781 C38.1647148,26.6777302 38.5338518,25.9746122 39.0143229,25.4082031 C39.4947941,24.841794 40.0768195,24.4140639 40.7604167,24.125 C41.4440138,23.8359361 42.2115843,23.6914062 43.063151,23.6914062 C43.9225303,23.6914062 44.6959601,23.8359361 45.3834635,24.125 C46.070967,24.4140639 46.6549455,24.841794 47.1354167,25.4082031 C47.6158878,25.9746122 47.9850248,26.6777302 48.2428385,27.5175781 C48.5006523,28.3574261 48.6295573,29.3281195 48.6295573,30.4296875 L48.6295573,34.5078125 Z M40.8014323,33.1015625 L45.3483073,29.7148438 C45.3248697,28.5664005 45.1256529,27.7148465 44.750651,27.1601562 C44.3756492,26.605466 43.8131548,26.328125 43.063151,26.328125 C42.3053348,26.328125 41.7389342,26.6210908 41.3639323,27.2070312 C40.9889304,27.7929717 40.8014323,28.6953064 40.8014323,29.9140625 L40.8014323,33.1015625 Z M45.3483073,31.9296875 L40.8014323,35.3046875 C40.840495,36.4296931 41.0475242,37.2636692 41.422526,37.8066406 C41.7975279,38.3496121 42.3522099,38.6210938 43.0865885,38.6210938 C43.8522174,38.6210938 44.4205711,38.3242217 44.7916667,37.7304688 C45.1627623,37.1367158 45.3483073,36.2265686 45.3483073,35 L45.3483073,31.9296875 Z" fill="url(#linearGradient-3)"></path>
                        </g>
                    </g>
                    <g id="logo+oval-bg" transform="translate(26.000000, 0.000000)">
                        <circle id="Oval" cx="113" cy="80" r="80"></circle>
                        <g id="Logo-sign-shadow" filter="url(#filter-4)" transform="translate(0.000000, 14.000000)" fill-rule="nonzero">
                            <polygon id="Shape" fill="#313A62" points="219 14.0033915 218.557079 6.65839304 216.391685 12.7792251 204.186742 23.4049896 190.210112 25.5595225 186.026966 21.5442566 198.23191 4.69972677 210.830562 0.97826087 197.24764 1.27206081 177.513034 15.5213579 159.008764 14.1992582 177.562247 26.8326556 186.715955 33.2472876 158.861124 13.7585582 132.974831 0.97826087 132.974831 0.97826087 117.620225 4.01419358 69.7355056 43.6771854 46.7035955 51.0711506 37.2053933 60.7175819 20.1775281 60.9134486 11.811236 76.4848454 0 79.8635447 11.1714607 81.4304777 21.5555056 67.4749805 37.5498876 70.8047132 37.3038202 85.6905768 29.2820225 107.186939 24.7051685 127.067402 19.7838202 135 32.2840449 132.257867 30.8568539 124.129402 41.4377528 102.290273 61.9597753 94.1128417 69.8831461 81.0387444 83.2692135 71.2943798 109.795281 75.2117123 136.616629 63.5086814 132.039775 81.9691109 120.130112 83.0463773 116.734382 98.2750075 126.970787 91.4686423 143.801798 84.1726104 157.040225 63.6066147 157.82764 53.8132833 164.963596 61.1582818 185.584045 73.9875459 197.24764 68.5032803 196.558652 41.2288526 193.212135 30.7010214 208.517528 26.8816222"></polygon>
                            <g id="Group">
                                <g id="Shape">
                                    <polygon fill="#3F4B80" points="186.174607 21.6195652 177.168539 15.1141304 198.23191 4.54891304"></polygon>
                                    <polygon fill="#313A62" points="132.630337 0.195652174 158.861124 13.5978261 162.010787 35.2173913"></polygon>
                                    <polygon fill="#3F4B80" points="162.010787 35.2173913 157.82764 53.6086957 132.630337 0.195652174"></polygon>
                                    <polygon fill="#4B5897" points="157.82764 53.6086957 117.669438 3.22826087 132.679551 0.293478261"></polygon>
                                    <polygon fill="#5161A4" points="157.82764 53.6086957 114.273708 36.6847826 117.669438 3.22826087"></polygon>
                                    <polygon fill="#4B5897" points="117.669438 3.22826087 114.273708 36.6847826 69.3910112 42.9456522"></polygon>
                                    <polygon fill="#4B5897" points="157.82764 53.6086957 109.795281 66.5706522 114.273708 36.6847826"></polygon>
                                    <polygon fill="#3F4B80" points="109.795281 66.5706522 157.82764 53.6086957 136.173708 63.6358696"></polygon>
                                    <polygon fill="#3F4B80" points="83.2692135 71.0706522 109.795281 66.5706522 110.238202 75.5706522"></polygon>
                                    <polygon fill="#313A62" points="110.238202 75.5706522 109.795281 66.5706522 136.173708 63.6358696"></polygon>
                                    <polygon fill="#3F4B80" points="69.3910112 42.9456522 114.273708 36.6847826 109.795281 66.5706522"></polygon>
                                    <polygon fill="#4B5897" points="69.3910112 42.9456522 109.795281 66.5706522 83.2692135 71.0706522"></polygon>
                                    <polygon fill="#313A62" points="69.3910112 42.9456522 83.2692135 71.0706522 69.8831461 80.8043478"></polygon>
                                    <polygon fill="#5161A4" points="46.6051685 50.5271739 51.9694382 82.5652174 37.2053933 60.5054348"></polygon>
                                    <polygon fill="#313A62" points="20.1775281 60.701087 37.2053933 60.5054348 37.3038202 70.826087"></polygon>
                                    <polygon fill="#3F4B80" points="21.5555056 67.6956522 20.1775281 60.701087 37.3038202 70.826087"></polygon>
                                    <polygon fill="#4B5897" points="21.5555056 67.6956522 11.811236 76.2554348 20.1775281 60.701087"></polygon>
                                    <polygon fill="#313A62" points="11.811236 76.2554348 11.1222472 81.4402174 0 79.6304348"></polygon>
                                    <polygon fill="#5161A4" points="11.811236 76.2554348 21.5555056 67.6956522 11.1222472 81.4402174"></polygon>
                                    <polygon fill="#3F4B80" points="37.2053933 60.5054348 51.9694382 82.5652174 37.3038202 85.451087"></polygon>
                                    <polygon fill="#3F4B80" points="41.5361798 101.88587 30.8568539 123.847826 29.2820225 106.923913"></polygon>
                                    <polygon fill="#1F243E" points="29.2820225 106.923913 30.8568539 123.847826 24.7051685 126.782609"></polygon>
                                    <polygon fill="#3F4B80" points="30.8568539 123.847826 32.4808989 132.11413 19.7838202 134.706522"></polygon>
                                    <polygon fill="#313A62" points="24.7051685 126.782609 30.8568539 123.847826 19.7838202 134.706522"></polygon>
                                    <polygon fill="#313A62" points="37.3038202 85.451087 51.9694382 82.5652174 29.2820225 106.923913"></polygon>
                                    <polygon fill="#4B5897" points="51.9694382 82.5652174 61.9597753 93.8641304 29.2820225 106.923913"></polygon>
                                    <polygon fill="#4B5897" points="46.6051685 50.5271739 69.3910112 42.9456522 51.9694382 82.5652174"></polygon>
                                    <polygon fill="#3F4B80" points="51.9694382 82.5652174 69.3910112 42.9456522 69.8831461 80.8043478"></polygon>
                                    <polygon fill="#313A62" points="61.9597753 93.8641304 51.9694382 82.5652174 69.8831461 80.8043478"></polygon>
                                    <polygon fill="#4B5897" points="136.173708 63.6358696 157.286292 63.4891304 143.801798 83.9347826"></polygon>
                                    <polygon fill="#5161A4" points="136.173708 63.6358696 157.82764 53.6086957 157.286292 63.4891304"></polygon>
                                    <polygon fill="#3F4B80" points="132.039775 81.7336957 136.173708 63.6358696 143.801798 83.9347826"></polygon>
                                    <polygon fill="#4B5897" points="126.970787 91.2228261 132.039775 81.7336957 143.801798 83.9347826"></polygon>
                                    <polygon fill="#3F4B80" points="116.734382 98.0217391 119.933258 82.4673913 132.039775 81.7336957"></polygon>
                                    <polygon fill="#313A62" points="116.734382 98.0217391 132.039775 81.7336957 126.970787 91.2228261"></polygon>
                                    <polygon fill="#495692" points="177.168539 15.1141304 197.24764 1.125 198.23191 4.54891304"></polygon>
                                    <polygon fill="#5D6CAC" points="197.24764 1.125 213.684944 0.293478261 198.23191 4.54891304"></polygon>
                                    <polygon fill="#4F60A3" points="186.715955 33.0652174 177.562247 26.6576087 208.517528 26.7065217"></polygon>
                                    <polygon fill="#495692" points="177.562247 26.6576087 204.186742 23.2336957 208.517528 26.7065217"></polygon>
                                    <polygon fill="#3F4B80" points="204.186742 23.2336957 216.391685 12.6195652 208.517528 26.7065217"></polygon>
                                    <polygon fill="#4F60A3" points="208.517528 26.7065217 216.391685 12.6195652 219 13.8423913"></polygon>
                                    <polygon fill="#313A62" points="216.391685 12.6195652 218.557079 6.50543478 219 13.8423913"></polygon>
                                </g>
                                <polygon id="Shape" fill="#313A62" points="162.010787 35.2173913 164.963596 60.9456522 157.82764 53.6086957"></polygon>
                                <polygon id="Shape" fill="#3F4B80" points="164.963596 60.9456522 162.010787 35.2173913 186.715955 33.0652174"></polygon>
                                <polygon id="Shape" fill="#4B5897" points="186.715955 33.0652174 162.010787 35.2173913 158.861124 13.5978261"></polygon>
                                <polygon id="Shape" fill="#313A62" points="186.174607 21.6195652 190.160899 25.1902174 177.562247 26.6576087"></polygon>
                                <polygon id="Shape" fill="#3F4B80" points="158.861124 13.5978261 186.174607 21.6195652 177.562247 26.6576087"></polygon>
                                <polygon id="Shape" fill="#313A62" points="158.861124 13.5978261 177.168539 15.1141304 186.174607 21.6195652"></polygon>
                                <polygon id="Shape" fill="#3F4B80" points="185.584045 73.7608696 186.715955 33.0652174 196.558652 41.0380435"></polygon>
                                <polygon id="Shape" fill="#495692" points="185.584045 73.7608696 186.715955 33.0652174 164.963596 60.9456522"></polygon>
                                <polygon id="Shape" fill="#313A62" points="196.558652 41.0380435 193.408989 30.8641304 186.715955 33.0652174"></polygon>
                                <polygon id="Shape" fill="#313A62" points="197.887416 68.1358696 185.584045 73.7608696 196.558652 41.0380435"></polygon>
                            </g>
                        </g>
                    </g>
                </g>
            </g>
        </g>
    </g>
</svg>