<svg width="64" height="64" viewBox="0 0 64 64" fill="none" xmlns="http://www.w3.org/2000/svg">
<path fill-rule="evenodd" clip-rule="evenodd" d="M32 5.33333C46.6667 5.33333 58.6667 17.3333 58.6667 32C58.6667 46.6667 46.6667 58.6667 32 58.6667C17.3333 58.6667 5.33333 46.6667 5.33333 32C5.33333 17.3333 17.3333 5.33333 32 5.33333ZM32 0C14.4 0 0 14.4 0 32C0 49.6 14.4 64 32 64C49.6 64 64 49.6 64 32C64 14.4 49.6 0 32 0Z" fill="#000"/>
<path fill-rule="evenodd" clip-rule="evenodd" d="M23.9229 26.4285V28.7142H28.5382V30.9999H23.9229V37.857H30.8459V35.5713H26.2305V33.2856H30.8459V26.4285H23.9229Z" fill="#000"/>
<path fill-rule="evenodd" clip-rule="evenodd" d="M38.9235 30.9999V26.4285H36.6158V30.9999H35.462V26.4285H33.1543V33.2856H35.462H36.6158V37.857H38.9235V33.2856H41.2312V30.9999H38.9235Z" fill="#000"/>
<path fill-rule="evenodd" clip-rule="evenodd" d="M45.7504 26.1989L43.6365 27.1143C44.3369 28.7017 44.6923 30.3931 44.6923 32.1429C44.6923 39.0743 38.9981 44.7143 32 44.7143C25.0019 44.7143 19.3077 39.0743 19.3077 32.1429C19.3077 25.2114 25.0019 19.5714 32 19.5714V21.8571L37.7692 18.4286L32 15V17.2857C23.7292 17.2857 17 23.9509 17 32.1429C17 40.3349 23.7292 47 32 47C40.2719 47 47 40.3349 47 32.1429C47 30.0743 46.58 28.0743 45.7504 26.1989Z" fill="#000"/>
</svg>
