<svg width="64" height="64" viewBox="0 0 64 64" fill="none" xmlns="http://www.w3.org/2000/svg">
<path fill-rule="evenodd" clip-rule="evenodd" d="M19 19.5554V25.2443V47.9999H46V25.2443V19.5554H19ZM22.375 44.4443V26.6665H42.625V44.4443H22.375Z" fill="#000"/>
<path fill-rule="evenodd" clip-rule="evenodd" d="M25.8506 23.5731H22.4756V16.541H25.8506V23.5731ZM42.7256 23.5731H39.3506V16.541H42.7256V23.5731Z" fill="#000"/>
<path fill-rule="evenodd" clip-rule="evenodd" d="M35.9426 39.8834V38.3616H33.7556V29.9563H31.9061L29.0576 31.6345L29.7326 32.9999L32.0141 31.6487V38.3616H29.5706V39.8834H35.9426Z" fill="#000"/>
<path fill-rule="evenodd" clip-rule="evenodd" d="M32 5.33333C46.6667 5.33333 58.6667 17.3333 58.6667 32C58.6667 46.6667 46.6667 58.6667 32 58.6667C17.3333 58.6667 5.33333 46.6667 5.33333 32C5.33333 17.3333 17.3333 5.33333 32 5.33333ZM32 0C14.4 0 0 14.4 0 32C0 49.6 14.4 64 32 64C49.6 64 64 49.6 64 32C64 14.4 49.6 0 32 0Z" fill="#000"/>
</svg>
