<?xml version="1.0" encoding="UTF-8"?>
<svg width="16px" height="16px" viewBox="0 0 16 16" version="1.1" xmlns="http://www.w3.org/2000/svg" xmlns:xlink="http://www.w3.org/1999/xlink">
    <!-- Generator: sketchtool 52.1 (67048) - http://www.bohemiancoding.com/sketch -->
    <title>D40A2C7C-1A0C-4CF9-AD64-AA0A6C269E36</title>
    <desc>Created with sketchtool.</desc>
    <g id="6.1-STO-issuer-side" stroke="none" stroke-width="1" fill="none" fill-rule="evenodd">
        <g id="STO-overview-tiers-usd" transform="translate(-164.000000, -655.000000)" fill="currentColor" fill-rule="nonzero">
            <g id="token-details-ver.2" transform="translate(120.000000, 181.000000)">
                <g id="table" transform="translate(24.000000, 338.000000)">
                    <g id="icn-clock" transform="translate(20.000000, 136.000000)">
                        <path d="M8,1.33333333 C11.676,1.33333333 14.6666667,4.324 14.6666667,8 C14.6666667,11.676 11.676,14.6666667 8,14.6666667 C4.324,14.6666667 1.33333333,11.676 1.33333333,8 C1.33333333,4.324 4.324,1.33333333 8,1.33333333 Z M8,0 C3.582,0 0,3.582 0,8 C0,12.418 3.582,16 8,16 C12.418,16 16,12.418 16,8 C16,3.582 12.418,0 8,0 Z M11.8986667,8.306 C12.0333333,8.33133333 12.0333333,8.528 11.8993333,8.554 C10.628,8.79466667 7.86933333,9.29466667 7.53466667,9.29466667 C7.05533333,9.29466667 6.66733333,8.90666667 6.66733333,8.42733333 C6.66733333,8.086 7.18066667,4.796 7.41733333,3.464 C7.44,3.336 7.62533333,3.34333333 7.646,3.47333333 L8.30266667,7.632 L11.8986667,8.306 Z" id="Shape"></path>
                    </g>
                </g>
            </g>
        </g>
    </g>
</svg>