<svg
  width="32"
  height="16"
  viewBox="0 0 32 16"
  xmlns="http://www.w3.org/2000/svg"
>
  <path
    d="M16.203 12.819c.418.305.51.894.2 1.312l-1.076 1.456c-.287.392-.91.498-1.315.201a.94.94 0 0 1-.203-1.315l1.079-1.456a.941.941 0 0 1 1.315-.198zM9.63 11.424l1.076-1.45A.94.94 0 0 0 9.189 8.86l-1.074 1.45a.943.943 0 0 0 .201 1.317c.397.29 1.024.194 1.315-.203zm3.354.21l-1.073 1.449a.944.944 0 0 0 .201 1.317c.402.295 1.027.193 1.316-.201l1.074-1.451a.942.942 0 0 0-1.518-1.113zm4.751 2.823c-.17.403-.63.968-.943 1.392.207.107.414.151.602.151.722 0 1.202-.681.553-1.33l-.212-.213zm-6.648-4.209l-1.083 1.461a.931.931 0 0 0 .208 1.304c.411.3 1.024.2 1.308-.19l1.083-1.463a.94.94 0 0 0-1.516-1.112zm16.995-1.081L32 8.125 29.89 0l-3.973 1.195 2.166 7.972zm-3.31-7.096c-1.937.141-3.778-.572-5.801-1.616-.445-.23-.959-.416-1.46-.416-.461 0-.913.158-1.292.588-1.365 1.548-2.159 2.916-3.785 3.864-.802.468.138 1.933 1.861 1.332.877-.308 2.067-1.103 3.036-1.884.763-.615 1.219-.526 1.88.136 1.237 1.238 5.404 5.35 5.404 5.35a15.956 15.956 0 0 1 1.884-.994l-1.727-6.36zm-18.69-.876L2.11 0 0 8.125l3.917 1.042 2.166-7.972zm17.874 9.501c-.645-.713-4.982-4.977-5.753-5.747-1.308.982-3.03 2.348-4.695 2.348-1.257 0-2.336-.742-2.624-1.805a1.893 1.893 0 0 1 .88-2.155c.947-.552 1.575-1.308 2.34-2.254-2.338-1.478-4.333.922-6.865.945L5.543 8.275c.741.176 1.386.362 1.985.588l.587-.794c1.056-1.441 3.258-1.142 3.933.468a2.28 2.28 0 0 1 1.899 1.387 2.273 2.273 0 0 1 1.896 1.385c1.248.108 2.266 1.24 2.04 2.63l.872.872a.942.942 0 0 0 1.33-1.332l-1.686-1.687a.235.235 0 0 1 .333-.333l2.03 2.032a.94.94 0 1 0 1.331-1.331l-2.5-2.501a.233.233 0 0 1 .008-.34.234.234 0 0 1 .324.006l2.7 2.7a.94.94 0 1 0 1.332-1.329z"
    fill="currentColor"
  />
</svg>
