<?xml version="1.0" encoding="UTF-8"?>
<svg width="146px" height="32px" viewBox="0 0 146 32" version="1.1" xmlns="http://www.w3.org/2000/svg" xmlns:xlink="http://www.w3.org/1999/xlink">
    <!-- Generator: sketchtool 51.2 (57519) - http://www.bohemiancoding.com/sketch -->
    <title>A23DFA49-2336-4A04-9371-C527016CD0E7</title>
    <desc>Created with sketchtool.</desc>
    <defs></defs>
    <g id="5.2-STO-investor-side" stroke="none" stroke-width="1" fill="none" fill-rule="evenodd">
        <g id="STO-investor-side-closed" transform="translate(-71.000000, -8.000000)" fill="#8C9BA5">
            <g id="Your-logo-placeholder" transform="translate(71.000000, 8.000000)">
                <path d="M9.9,17.98 L9.9,23 L5.94,23 L5.94,17.92 L0.6,9 L4.78,9 L8.1,14.56 L11.42,9 L15.26,9 L9.9,17.98 Z M24.862857,23.28 C23.3828496,23.28 22.0528629,22.9666698 20.872857,22.34 C19.6928511,21.7133302 18.7661937,20.8466722 18.092857,19.74 C17.4195203,18.6333278 17.082857,17.3866736 17.082857,16 C17.082857,14.6133264 17.4195203,13.3666722 18.092857,12.26 C18.7661937,11.1533278 19.6928511,10.2866698 20.872857,9.66 C22.0528629,9.0333302 23.3828496,8.72 24.862857,8.72 C26.3428644,8.72 27.6728511,9.0333302 28.852857,9.66 C30.0328629,10.2866698 30.9595203,11.1533278 31.632857,12.26 C32.3061937,13.3666722 32.642857,14.6133264 32.642857,16 C32.642857,17.3866736 32.3061937,18.6333278 31.632857,19.74 C30.9595203,20.8466722 30.0328629,21.7133302 28.852857,22.34 C27.6728511,22.9666698 26.3428644,23.28 24.862857,23.28 Z M24.862857,20 C25.5695272,20 26.2095208,19.833335 26.782857,19.5 C27.3561932,19.166665 27.809522,18.6966697 28.142857,18.09 C28.476192,17.4833303 28.642857,16.7866706 28.642857,16 C28.642857,15.2133294 28.476192,14.5166697 28.142857,13.91 C27.809522,13.3033303 27.3561932,12.833335 26.782857,12.5 C26.2095208,12.166665 25.5695272,12 24.862857,12 C24.1561868,12 23.5161932,12.166665 22.942857,12.5 C22.3695208,12.833335 21.916192,13.3033303 21.582857,13.91 C21.249522,14.5166697 21.082857,15.2133294 21.082857,16 C21.082857,16.7866706 21.249522,17.4833303 21.582857,18.09 C21.916192,18.6966697 22.3695208,19.166665 22.942857,19.5 C23.5161932,19.833335 24.1561868,20 24.862857,20 Z M43.325714,23.28 C41.2457036,23.28 39.6290531,22.713339 38.475714,21.58 C37.3223749,20.446661 36.745714,18.8400104 36.745714,16.76 L36.745714,9 L40.705714,9 L40.705714,16.64 C40.705714,18.8800112 41.5923718,20 43.365714,20 C45.1257228,20 46.005714,18.8800112 46.005714,16.64 L46.005714,9 L49.905714,9 L49.905714,16.76 C49.905714,18.8400104 49.3290531,20.446661 48.175714,21.58 C47.0223749,22.713339 45.4057244,23.28 43.325714,23.28 Z M60.848571,19.28 L58.688571,19.28 L58.688571,23 L54.728571,23 L54.728571,9 L61.128571,9 C62.395244,9 63.495233,9.2099979 64.428571,9.63 C65.361909,10.0500021 66.0819018,10.6499961 66.588571,11.43 C67.0952402,12.2100039 67.348571,13.1266614 67.348571,14.18 C67.348571,15.1933384 67.1119067,16.0766629 66.638571,16.83 C66.1652353,17.5833371 65.4885754,18.1733312 64.608571,18.6 L67.628571,23 L63.388571,23 L60.848571,19.28 Z M63.348571,14.18 C63.348571,13.5266634 63.1419064,13.0200018 62.728571,12.66 C62.3152356,12.2999982 61.7019084,12.12 60.888571,12.12 L58.688571,12.12 L58.688571,16.22 L60.888571,16.22 C61.7019084,16.22 62.3152356,16.0433351 62.728571,15.69 C63.1419064,15.3366649 63.348571,14.8333366 63.348571,14.18 Z M79.634285,9 L83.594285,9 L83.594285,19.86 L90.274285,19.86 L90.274285,23 L79.634285,23 L79.634285,9 Z M100.817142,23.28 C99.3371346,23.28 98.0071479,22.9666698 96.827142,22.34 C95.6471361,21.7133302 94.7204787,20.8466722 94.047142,19.74 C93.3738053,18.6333278 93.037142,17.3866736 93.037142,16 C93.037142,14.6133264 93.3738053,13.3666722 94.047142,12.26 C94.7204787,11.1533278 95.6471361,10.2866698 96.827142,9.66 C98.0071479,9.0333302 99.3371346,8.72 100.817142,8.72 C102.297149,8.72 103.627136,9.0333302 104.807142,9.66 C105.987148,10.2866698 106.913805,11.1533278 107.587142,12.26 C108.260479,13.3666722 108.597142,14.6133264 108.597142,16 C108.597142,17.3866736 108.260479,18.6333278 107.587142,19.74 C106.913805,20.8466722 105.987148,21.7133302 104.807142,22.34 C103.627136,22.9666698 102.297149,23.28 100.817142,23.28 Z M100.817142,20 C101.523812,20 102.163806,19.833335 102.737142,19.5 C103.310478,19.166665 103.763807,18.6966697 104.097142,18.09 C104.430477,17.4833303 104.597142,16.7866706 104.597142,16 C104.597142,15.2133294 104.430477,14.5166697 104.097142,13.91 C103.763807,13.3033303 103.310478,12.833335 102.737142,12.5 C102.163806,12.166665 101.523812,12 100.817142,12 C100.110472,12 99.4704782,12.166665 98.897142,12.5 C98.3238058,12.833335 97.870477,13.3033303 97.537142,13.91 C97.203807,14.5166697 97.037142,15.2133294 97.037142,16 C97.037142,16.7866706 97.203807,17.4833303 97.537142,18.09 C97.870477,18.6966697 98.3238058,19.166665 98.897142,19.5 C99.4704782,19.833335 100.110472,20 100.817142,20 Z M122.199999,15.7 L125.699999,15.7 L125.699999,21.5 C124.899995,22.0733362 123.980004,22.5133318 122.939999,22.82 C121.899994,23.1266682 120.860004,23.28 119.819999,23.28 C118.353325,23.28 117.033338,22.9700031 115.859999,22.35 C114.68666,21.7299969 113.766669,20.8666722 113.099999,19.76 C112.433329,18.6533278 112.099999,17.400007 112.099999,16 C112.099999,14.599993 112.433329,13.3466722 113.099999,12.24 C113.766669,11.1333278 114.693326,10.2700031 115.879999,9.65 C117.066672,9.0299969 118.406658,8.72 119.899999,8.72 C121.206672,8.72 122.379994,8.9399978 123.419999,9.38 C124.460004,9.8200022 125.326662,10.4533292 126.019999,11.28 L123.499999,13.56 C122.553328,12.5199948 121.420006,12 120.099999,12 C118.899993,12 117.933336,12.3633297 117.199999,13.09 C116.466662,13.8166703 116.099999,14.7866606 116.099999,16 C116.099999,16.7733372 116.266664,17.4633303 116.599999,18.07 C116.933334,18.6766697 117.399996,19.1499983 117.999999,19.49 C118.600002,19.8300017 119.286662,20 120.059999,20 C120.820003,20 121.533329,19.8466682 122.199999,19.54 L122.199999,15.7 Z M137.422856,23.28 C135.942849,23.28 134.612862,22.9666698 133.432856,22.34 C132.25285,21.7133302 131.326193,20.8466722 130.652856,19.74 C129.979519,18.6333278 129.642856,17.3866736 129.642856,16 C129.642856,14.6133264 129.979519,13.3666722 130.652856,12.26 C131.326193,11.1533278 132.25285,10.2866698 133.432856,9.66 C134.612862,9.0333302 135.942849,8.72 137.422856,8.72 C138.902863,8.72 140.23285,9.0333302 141.412856,9.66 C142.592862,10.2866698 143.519519,11.1533278 144.192856,12.26 C144.866193,13.3666722 145.202856,14.6133264 145.202856,16 C145.202856,17.3866736 144.866193,18.6333278 144.192856,19.74 C143.519519,20.8466722 142.592862,21.7133302 141.412856,22.34 C140.23285,22.9666698 138.902863,23.28 137.422856,23.28 Z M137.422856,20 C138.129526,20 138.76952,19.833335 139.342856,19.5 C139.916192,19.166665 140.369521,18.6966697 140.702856,18.09 C141.036191,17.4833303 141.202856,16.7866706 141.202856,16 C141.202856,15.2133294 141.036191,14.5166697 140.702856,13.91 C140.369521,13.3033303 139.916192,12.833335 139.342856,12.5 C138.76952,12.166665 138.129526,12 137.422856,12 C136.716186,12 136.076192,12.166665 135.502856,12.5 C134.92952,12.833335 134.476191,13.3033303 134.142856,13.91 C133.809521,14.5166697 133.642856,15.2133294 133.642856,16 C133.642856,16.7866706 133.809521,17.4833303 134.142856,18.09 C134.476191,18.6966697 134.92952,19.166665 135.502856,19.5 C136.076192,19.833335 136.716186,20 137.422856,20 Z" id="Your-Logo"></path>
            </g>
        </g>
    </g>
</svg>